<?xml version="1.0" encoding="utf-8"?>
<!-- Generator: Adobe Illustrator 25.2.3, SVG Export Plug-In . SVG Version: 6.00 Build 0)  -->
<svg version="1.1" id="bf4a54d9-4411-43b3-8949-563af8245ce3"
	 xmlns="http://www.w3.org/2000/svg" xmlns:xlink="http://www.w3.org/1999/xlink" x="0px" y="0px" viewBox="0 0 892.3 579.1"
	 style="enable-background:new 0 0 892.3 579.1;" xml:space="preserve">
<style type="text/css">
	.st0{fill:#3F3D56;}
	.st1{fill:#E6E6E6;}
	.st2{fill:#9F616A;}
	.st3{fill:#88CFFD;}
	.st4{opacity:0.1;enable-background:new    ;}
	.st5{fill:#2F2E41;}
</style>
<rect y="563.7" class="st0" width="888" height="2"/>
<g>
	<path class="st1" d="M453,548.5l46.5-69.1L453.1,556l0.1,7.8c-3.4,0-6.8,0-10.1-0.2l2.3-99.9l-0.1-0.8l0.1-0.1l0.2-9.4l-50.9-73.9
		l50.8,66.8l0.2,2l1.7-75.5l-43.9-76.6l44.1,63.3L447.2,203l0-0.5l0,0.5l2.9,123.3l40-50.1l-39.9,60.7l0.9,67.5l36.9-65.9
		l-36.7,75.8l0.5,37.6l53.6-91.8L451.9,465L453,548.5z"/>
	<path class="st1" d="M609.3,550.7l46.5-69.1l-46.4,76.5l0.1,7.8c-3.4,0-6.8,0-10.1-0.2l2.3-99.9l-0.1-0.8l0.1-0.1l0.2-9.4
		l-50.9-73.9l50.8,66.8l0.2,2l1.7-75.5l-43.9-76.6l44.1,63.3l-0.5-156.4l0-0.5l0,0.5l2.9,123.3l40-50.1l-39.9,60.7l0.9,67.5
		l36.9-65.9l-36.7,75.8l0.5,37.6l53.6-91.8l-53.4,104.9L609.3,550.7z"/>
	<path class="st2" d="M275.3,270.9c0,0-6.3-46.1-16.8-33.5s0,31.4,0,31.4l8.4,10.5l8.4-6.3L275.3,270.9z"/>
	<path class="st3" d="M300.5,285.6c0,0-21-23-25.1-18.9s-16.8,6.3-14.7,14.7s46.1,35.6,46.1,35.6L300.5,285.6z"/>
	<path class="st4" d="M300.5,285.6c0,0-21-23-25.1-18.9s-16.8,6.3-14.7,14.7s46.1,35.6,46.1,35.6L300.5,285.6z"/>
	<path class="st2" d="M419.9,283.5v16.8c0,0,2.1,37.7-10.5,35.6s-6.3-33.5-6.3-33.5l2.1-18.9L419.9,283.5z"/>
	<path class="st2" d="M413.6,405c0,0,18.9,29.3,25.1,31.4s39.8,21,44,39.8l29.3,37.7l-14.7,18.9c0,0-67-71.2-85.9-77.5
		s-37.7-37.7-37.7-37.7L413.6,405z"/>
	<path class="st2" d="M264.9,356.8c0,0-39.8,6.3-33.5,31.4s67,77.5,67,77.5l2.1,12.6l23,4.2L334,472l-2.1-6.3c0,0-25.1-23-27.2-31.4
		s-25.1-41.9-35.6-44l14.7-8.4L264.9,356.8z"/>
	<path class="st5" d="M505.8,513.9c0,0-8.4-12.6,4.2-10.5s21,4.2,21,12.6s-10.5,67-23,62.9s-2.1-23-2.1-23s-6.3-16.8-10.5-18.9
		s-4.2-12.6,0-12.6S507.9,518.1,505.8,513.9z"/>
	<path class="st5" d="M327.7,467.9c0,0,0-10.5,8.4,0s12.6,18.9,4.2,25.1s-37.7,21-37.7,21s-31.4,6.3-27.2-8.4c0,0,21-10.5,21-18.9
		s0-23,6.3-18.9S327.7,474.1,327.7,467.9z"/>
	<path class="st5" d="M367.5,310.7c0,0,29.3,4.2,27.2,46.1c0,0,37.7,37.7,27.2,50.3s-33.5,35.6-41.9,29.3S346.6,382,346.6,382
		s-58.7,21-69.1,10.5s-21-35.6-21-35.6l52.4-27.2L367.5,310.7z"/>
	<circle class="st2" cx="285.8" cy="166.1" r="25.1"/>
	<path class="st2" d="M304.7,168.2c0,0,14.7,23,18.9,25.1s-29.3,23-29.3,23s0-27.2-10.5-33.5L304.7,168.2z"/>
	<path class="st3" d="M306.8,191.3c0,0,33.5-10.5,39.8,6.3s21,48.2,18.9,69.1s-6.3,16.8,0,23c6.3,6.3,10.5,2.1,8.4,10.5
		c-2.1,8.4-4.2,8.4-2.1,12.6s-25.1,18.9-48.2,21l-23,2.1c0,0,0-37.7-4.2-46.1c-4.2-8.4-12.6-25.1-12.6-31.4v-16.6
		c0-11.1,2.9-21.9,8.4-31.6l0,0C292.1,210.1,304.7,191.3,306.8,191.3z"/>
	<path class="st3" d="M331.9,199.7c0,0,77.5,6.3,85.9,27.2s12.6,62.9,4.2,62.9s-18.9,4.2-21,0s-10.5-46.1-12.6-46.1
		s-64.9-6.3-64.9-6.3S296.3,203.9,331.9,199.7z"/>
	<path class="st5" d="M284.8,159.9c0,0-6.7-11.6-15-1.5S247.9,150,250,146s9.4,0.2,22-3.9s36.9-12.5,41,14.9s-5.6,24.5-5.6,24.5
		s-4.4-24.3-8.5-17.3l-4,7l-3.5,0.9L284.8,159.9z"/>
</g>
</svg>
