<svg enable-background="new 0 0 1099 797.7" viewBox="0 0 1099 797.7" xmlns="http://www.w3.org/2000/svg"><circle cx="471" cy="373" fill="#f2f2f2" r="373"/><ellipse cx="148" cy="774" fill="#f2f2f2" rx="148" ry="23.7"/><ellipse cx="870" cy="737" fill="#f2f2f2" rx="229" ry="36.6"/><path d="m819.1 384.8s1.9 6.5-9.1 12.3-14.3 27.9-1.3 34.4 16.9 14.9 10.4 20.8-18.2 21.4-2.6 25.3 17.5 11.7 13 14.9 10.4-5.8 10.4-5.8 2.6 15.6 16.2 11.7 52-78 32.5-88.4-69.5-25.2-69.5-25.2z" fill="#2f2e41"/><path d="m842.7 447.5s6.7 23.6-5.1 25.3c-7.3 1.1-14.3 4-20.2 8.4l21.9 28.7h40.4l25.3-25.3s-33.7-25.3-27-40.4-35.3 3.3-35.3 3.3z" fill="#ffb9b9"/><path d="m842.7 447.5s6.7 23.6-5.1 25.3c-7.3 1.1-14.3 4-20.2 8.4l21.9 28.7h40.4l25.3-25.3s-33.7-25.3-27-40.4-35.3 3.3-35.3 3.3z" opacity=".1"/><path d="m852.8 740.8 38.7 13.5 27 1.6-1.7-23.5-55.6-16.5z" fill="#ffb9b9"/><path d="m902.5 735.7s0 23.6 3.4 23.6 48.9-5.1 62.4 0 33.7-13.5 23.6-23.6-26.6-25.3-36.9-21.9-52.4 11.8-52.4 11.8v10.1z" fill="#575a89"/><path d="m778.6 713.8s-20.2 40.4-6.7 43.8 28.7-1.7 30.3-3.4 25.3-8.4 28.7-5.1 3.4-13.5 3.4-13.5z" fill="#575a89"/><path d="m795.5 658.2s-32 43.8-8.4 55.6 136.5 11.8 144.9 0 11.8-48.9 0-52.2-136.5-3.4-136.5-3.4z" fill="#2f2e41"/><path d="m795.5 658.2s-32 43.8-8.4 55.6 136.5 11.8 144.9 0 11.8-48.9 0-52.2-136.5-3.4-136.5-3.4z" opacity=".2"/><circle cx="856.2" cy="420.6" fill="#ffb9b9" r="38.8"/><path d="m795.5 481.2 33.7-6.7s8.4 27 35.4 21.9 33.7-21.9 33.7-21.9 20.2 8.4 21.9 8.4 23.6 8.4 23.6 13.5-25.3 55.6-25.3 55.6l3.4 91-124.7-3.4 8.4-89.3z" fill="#88cffd"/><path d="m776.9 525.1s-10.1 89.3-3.4 96.1 33.7 25.3 33.7 25.3v-20.2l-13.5-25.3 13.5-59z" fill="#ffb9b9"/><path d="m951.4 522.5s-5.9 91.8-5.9 95.2-15.2 15.2-20.2 15.2-8.4-8.4-8.4-8.4l11.8-13.5-8.4-69.1z" fill="#ffb9b9"/><path d="m935.4 651.5s75.8-42.1 77.5 0-38.8 59-38.8 59-104.5 31.3-108.7 19.9-12.6-30-5.9-31.7 15.2-5.1 18.5-1.7 45.5-25.3 45.5-25.3z" fill="#2f2e41"/><path d="m970.8 646.4s-15.2 6.7-20.2 11.8-27 13.5-27 13.5" fill="none" opacity=".2" stroke="#000" stroke-miterlimit="10" stroke-width="2"/><path d="m805.6 484.6-10.1-3.4s-37.1 38.8-25.3 48.9 18.5 13.5 21.9 16.9 20.2 5.1 20.2 5.1z" fill="#88cffd"/><path d="m928.6 493 15.2 3.4s11.8 25.3 15.2 28.6-5.1 1.7-10.1 8.4-10.2 18.6-20.3 18.6-23.6-16.8-23.6-16.8z" fill="#88cffd"/><path d="m798.9 666.6s-64-45.5-86-11.8 94.4 79.2 111.2 86 32 13.5 32 13.5 15.2-37.1 15.2-43.8-11.8-6.7-15.2-6.7-18.5-3.4-21.9-8.4-35.3-28.8-35.3-28.8z" fill="#2f2e41"/><path d="m763.5 654.8s16.9 13.5 32 16.9 20.2 11.8 20.2 11.8" fill="none" opacity=".2" stroke="#000" stroke-miterlimit="10" stroke-width="2"/><path d="m787.2 591.5 1.3 71.4c.1 4.9 4.1 8.8 9 8.8l132.8-1.5c4.7-.1 8.5-3.7 8.8-8.4l4-69.9c.3-4.9-3.5-9.1-8.4-9.4-.2 0-.3 0-.5 0h-138c-4.9 0-8.9 4-8.9 8.9-.1-.1-.1 0-.1.1z" fill="#575a89"/><path d="m858.2 371.9s2.2 7.2-10.1 13.7-15.8 31-1.4 38.2 18.7 16.6 11.5 23-20.2 23.8-2.9 28.1 19.4 13 14.4 16.6 11.5-6.5 11.5-6.5 2.9 17.3 18 13 30.2-82.8 13.4-103.1c-15.7-18.9-54.4-23-54.4-23z" fill="#2f2e41"/><path d="m853.6 364.5c0-10.5 31.6-3 45.1 11.8 9.4 10.2 23.6 25.5 11.7 36.4s20.4 25 29.1 29.3 25.8 17.4 10.3 26.3-15.2 17.7-9.4 19.8-12.8-3.1-12.8-3.1 1.9 17.4-13.8 17.3-60.8-86.5-50.1-110.5c10-22.5-10.1-27.3-10.1-27.3z" fill="#2f2e41"/><path d="m860.5 362.2c-42.2-2.5-46.4 29.2-46.4 29.2.3 18.4 29.5 9.4 37.6 12.2 9.8-7 28.6-20.4 42.1-29.9-9.8-6.9-21.4-10.9-33.3-11.5z" fill="#2f2e41"/><path d="m848.4 564.8s-37.9-177.4-274.8-306.1" fill="none" stroke="#3f3d56" stroke-miterlimit="10" stroke-width="2"/><path d="m833.8 559.5 1.2-2.5 13.4 7.8 4.9-12.6 2.8 1.4-5.9 15.4z" fill="#3f3d56"/><path d="m68.5 746.1c0 22.5-13.4 30.3-29.8 30.3-.4 0-.8 0-1.1 0-.8 0-1.5-.1-2.3-.1-14.9-1.1-26.4-9.3-26.4-30.2 0-21.6 27.6-48.9 29.7-50.9.1-.1.1-.1.1-.1s29.8 28.5 29.8 51z" fill="#88cffd"/><path d="m37.6 773 10.9-15.2-10.9 16.9v1.8c-.8 0-1.5-.1-2.3-.1l1.2-22.5v-.2l.1-2.1-11-17 11 15.4v.5l.9-17-9.4-17.5 9.5 14.5.9-35.2v-.1.1l-.2 27.8 9.3-11-9.4 13.4-.2 15.2 8.7-14.6-8.7 16.7-.1 8.5 12.7-20.3-12.7 23.3z" fill="#3f3d56"/><g fill="#2f2e41"><path d="m210.8 740.3 6.4-4.7s4.2 23.6-.5 27.1-22.4 9.4-22.4 16.5-40.1 16.5-41.2 5.9 3.5-16.5 3.5-16.5 18.9-18.9 21.2-22.4 8.2-10.6 8.2-10.6z"/><path d="m116.5 446.9s.2 1 .5 2.9c.3 1.7.7 4.1 1.1 7 4.9 30.2 19.4 119.1 18.4 122.1-1.2 3.5-9.4 16.5 0 20 .9.3 1.9 1.4 2.9 3.2 2 3.8 3.7 7.7 5 11.8 5.6 16.3 11.6 42.4 15.1 60.5 1.5 7.9 2.6 14.3 2.9 17.7.1.8.1 1.6 0 2.3-1.2 4.7 7.1 21.2 10.6 25.9s9.4 9.4 8.2 14.1 29.5 17.7 33 9.4 3.5-13 4.7-15.3 2.4-18.9-3.5-21.2-2.4-43.6-8.2-51.9c-2-2.7-5-12-8.1-23.2-1.2-4.4-2.5-9.1-3.7-13.7-5-19.2-9.4-38.5-9.4-38.5l1.2-137.9-64.8-8.2-1.7 3.7-3.3 7.3z"/><path d="m113 673.1s-9.4-9.4-14.1 0-9.4 46-17.7 54.2-18.9 49.5-7.1 51.9 24.7-3.5 25.9-10.6 25.9-43.6 25.9-47.1-16.5-16.5-16.5-16.5z"/><path d="m257.9 382s-15.3 137.9-18.9 150.8-22.4 62.5-28.3 70.7-43.6 75.4-48.3 79-14.1 13-14.1 13-17.7 17.7-20 21.2-22.4-7.1-23.6-14.1 1.2-18.9 2.4-23.6-2.4-11.8 1.2-15.3 21.2-21.2 21.2-29.5 30.6-56.6 42.4-67.2 9.4-28.3 9.4-28.3v-71.9l-64.8-20s3.5-56.6 11.8-56.6 116.6-18.8 129.6-8.2z"/></g><circle cx="162.5" cy="146.3" fill="#9f616a" r="38.9"/><path d="m175.4 177s4.7 17.7 10.6 22.4-15.3 24.7-15.3 24.7l-40.1 2.4-7.1-22.4s13-25.9 9.4-42.4 42.5 15.3 42.5 15.3z" fill="#9f616a"/><path d="m191.9 197s-10.6 1.2-13 4.7-18.9 14.1-31.8 11.8-21.2-5.9-23.6-4.7-7.1 25.9-7.1 25.9l13 37.7-2.4 103.7-3.5 28.3s-7.1-9.4 21.2-3.5 64.8-4.7 76.6-5.9 31.8-4.7 33-11.8-3.5-33-3.5-33l-18.9-79-11.8-42.4z" fill="#88cffd"/><path d="m180.8 191.7s10-5.3 13.5-.6 48.3 11.8 48.3 15.3 9.4 99 7.1 107.2 4.7 17.7 4.7 17.7l8.2 35.4s22.4 67.2 13 69.5-17.7 0-21.2 0-2.4-44.8-11.8-56.6-22.4-41.2-24.7-47.1-31.8-87.2-30.6-96.6-6.5-44.2-6.5-44.2z" fill="#d0cde1"/><path d="m131.8 197s-9.4 0-10.6 2.4-13 17.7-17.7 21.2-21.2 18.8-21.2 22.4 34.2 29.5 34.2 29.5 14.1 69.5 7.1 93.1-17.7 80.1-13 83.7 15.3 4.7 15.3 0 7.1-55.4 13-66 23.6-77.8 16.5-96.6-23.6-89.7-23.6-89.7z" fill="#d0cde1"/><path d="m287.4 313.7s1.2 36.5-11.8 55.4-21.2 40.1-21.2 40.1-21.2-5.9-24.7-13-25.9-1.2-25.9-3.5 27.1-14.1 29.5-16.5 10.6-2.4 15.3-7.1 5.9-15.3 5.9-15.3l4.7-30.6z" fill="#9f616a"/><path d="m189.2 122.4c3-.3 6.1-.6 8.7-2 5.9-3.2 7.5-12.3 3-17.3-1.2-1.3-2.6-2.4-4.1-3.3l-9-6.1c-4-2.7-8-5.4-12.6-6.7-4.2-1.1-8.6-1-12.9-.8-8.4.5-16.8 1.6-24.7 4.5s-15.3 7.8-20.1 14.7c-7.6 11-7.7 25.8-3.5 38.4 4.2 12.7 12.1 23.7 19.9 34.5l4.1-19.8c.4-1.8.8-3.7 2.3-4.7 3.6-2.6 8.1 2.7 12.6 2.7 2.9 0 5.3-2.4 6.4-5s1.2-5.6 1.4-8.5c.5-6.1 2.7-14.5 8.4-17.8 5.3-3.2 14.1-2.3 20.1-2.8z" fill="#2f2e41"/><path d="m187.1 447.8s-4 115.1-6.3 118.7 0-119 0-119z" opacity=".1"/><path d="m233.2 206.4h9.4s40.1 54.2 35.4 57.7 0 13 0 13l9.4 17.7s11.8 10.6 8.2 13-8.2 11.8-8.2 11.8-23.6-3.5-30.6 10.6l-15.3-19.3z" fill="#d0cde1"/><path d="m215.3 228.1h35v65.2h-35z" fill="#2f2e41" transform="matrix(.9243 -.3817 .3817 .9243 -81.8848 108.5804)"/><ellipse cx="230.3" cy="253.3" fill="#88cffd" rx="7" ry="6.4" transform="matrix(.9243 -.3817 .3817 .9243 -79.2478 107.0583)"/><path d="m209.6 300.7s-84.8 70.7-99 48.3 15.3-41.2 15.3-41.2 25.9 1.2 55.4-17.7l29.5-13s26.9-38.4 36.1-23.8-15.7 40.1-37.3 47.4z" fill="#9f616a"/><path d="m95.3 238.3-13 4.7v35.4l-4.7 7.1s1.2 14.1 4.7 17.7 10.6 2.4 8.2 10.6c-1.4 5.4-1.8 11-1.2 16.5 0 0 21.2 27.1 22.4 23.6s17.7-47.1 20-47.1-23.6-68.4-23.6-68.4h-12.8z" fill="#d0cde1"/><path d="m250.3 416.8s12.2-11.8 6.1-12.4-27.3-12.4-30.8-6.5 24.7 18.9 24.7 18.9z" fill="#2f2e41"/><ellipse cx="482" cy="183" fill="#57b894" rx="17" ry="9"/><path d="m547 213c-38.3-14.5-76.7-14.5-115 0v-47c37.5-11.3 77.5-11.3 115 0z" fill="none" stroke="#3f3d56" stroke-miterlimit="10" stroke-width="2"/><path d="m531 203.3c-27.7-10.4-55.3-10.4-83 0v-33.9c27.1-8.2 55.9-8.2 83 0z" fill="none" stroke="#3f3d56" stroke-miterlimit="10" stroke-width="2"/><ellipse cx="488" cy="179" fill="none" rx="17" ry="9" stroke="#3f3d56" stroke-miterlimit="10" stroke-width="2"/><ellipse cx="492.7" cy="239.5" fill="#57b894" rx="17" ry="9" transform="matrix(.9798 -.2 .2 .9798 -37.951 103.366)"/><path d="m562.4 255.9c-40.5-6.5-78 1.1-112.7 23l-9.4-46.1c34.5-18.6 73.7-26.6 112.7-23z" fill="none" stroke="#3f3d56" stroke-miterlimit="10" stroke-width="2"/><path d="m544.8 249.6c-29.2-4.7-56.3.8-81.3 16.6l-6.8-33.2c24.9-13.4 53.2-19.2 81.3-16.6z" fill="none" stroke="#3f3d56" stroke-miterlimit="10" stroke-width="2"/><ellipse cx="497.8" cy="234.4" fill="none" rx="17" ry="9" stroke="#3f3d56" stroke-miterlimit="10" stroke-width="2" transform="matrix(.9798 -.2 .2 .9798 -36.8248 104.2782)"/><ellipse cx="489.2" cy="295.5" fill="#57b894" rx="9" ry="17" transform="matrix(.06941868 -.9976 .9976 .06941868 160.4446 762.9675)"/><path d="m551.9 329.9c-37.2-17.1-75.5-19.8-114.7-8l3.3-46.9c38.2-8.7 78.1-5.9 114.7 8z" fill="none" stroke="#3f3d56" stroke-miterlimit="10" stroke-width="2"/><path d="m536.6 319.1c-26.9-12.3-54.5-14.3-82.8-5.8l2.4-33.8c27.6-6.3 56.4-4.3 82.8 5.8z" fill="none" stroke="#3f3d56" stroke-miterlimit="10" stroke-width="2"/><ellipse cx="495.4" cy="291.9" fill="none" rx="9" ry="17" stroke="#3f3d56" stroke-miterlimit="10" stroke-width="2" transform="matrix(.06941868 -.9976 .9976 .06941868 169.8382 765.8899)"/><path d="m406.8 218.2s-73.3-11.5-126.4 18.2" fill="none" stroke="#3f3d56" stroke-miterlimit="10" stroke-width="2"/><path d="m399.8 225.5-1.3-1.6 7.6-6.2-6.9-7.2 1.5-1.4 8.3 8.7z" fill="#3f3d56"/></svg>