<?xml version="1.0" encoding="utf-8"?>
<!-- Generator: Adobe Illustrator 25.2.3, SVG Export Plug-In . SVG Version: 6.00 Build 0)  -->
<svg version="1.1" id="Layer_1" xmlns="http://www.w3.org/2000/svg" xmlns:xlink="http://www.w3.org/1999/xlink" x="0px" y="0px"
	 viewBox="0 0 783.9 582" style="enable-background:new 0 0 783.9 582;" xml:space="preserve">
<style type="text/css">
	.st0{fill:#E6E6E6;}
	.st1{fill:#9E616A;}
	.st2{fill:#2F2E41;}
	.st3{fill:#88CFFD;}
	.st4{fill:#FFFFFF;}
	.st5{fill:#3F3D56;}
	.st6{fill:none;stroke:#3F3D56;stroke-width:2;stroke-miterlimit:10;}
	.st7{fill:#57B894;}
</style>
<path class="st0" d="M47.3,472.6c1,36,7,71.7,17.9,106c0.2,0.8,0.5,1.6,0.8,2.4h66.8c-0.1-0.7-0.1-1.5-0.2-2.4
	c-4.5-51.2,21-359.3,51.7-412.6C181.6,170.3,42.1,309.9,47.3,472.6L47.3,472.6z"/>
<path class="st0" d="M52.3,578.6c0.6,0.8,1.1,1.6,1.7,2.4h50.1c-0.4-0.7-0.8-1.5-1.3-2.4c-8.3-14.9-32.8-59.6-55.6-106
	c-24.4-49.8-46.9-101.5-45-120.2C1.7,356.7-15.2,485.3,52.3,578.6L52.3,578.6z"/>
<path class="st1" d="M266.7,398.4c-0.2,0.6-0.3,1.2-0.3,1.8l-48.3,25.4l-11.2-7.1L194,434l18.6,14.4c3.1,2.4,7.4,2.5,10.6,0.2
	l50.2-36.5c5.9,2.4,12.6-0.3,15.1-6.2c2.4-5.9-0.3-12.6-6.2-15.1s-12.6,0.3-15.1,6.2C267,397.5,266.9,397.9,266.7,398.4L266.7,398.4
	z"/>
<path class="st1" d="M324.9,570.2l9.7-6.2l-19.4-40.3l-14.3,9.2L324.9,570.2z"/>
<g transform="translate(-208.06976 -159)">
	<path class="st2" d="M528.5,727.6l19.1-12.3l0,0c6.7-4.3,15.6-2.4,20,4.3l0.3,0.4l-31.2,20.1L528.5,727.6z"/>
	<path class="st2" d="M393.5,660l74.3-47.6c0,0,13.7-1.3,21.8,14.8l49.5,71.1l-21.1,14.3l-54.9-57l-37.7,37.3
		c0,0,55.5-9.1,53.6,27.5c-1.5,29.1-77.5,19.1-108.8,13.7c-12-2-22.6-9.2-28.8-19.7c-3.4-5.8-5.2-12.4-2.3-18.7
		C346.7,679,393.5,660,393.5,660z"/>
	<path class="st3" d="M356.7,699.7l-21.4-4.3l6.1-105.1l24.6-30.2l14.7-2.6c9.1-1.6,17.9,3.9,20.3,12.8l6.5,23.6
		c11,18.6-4.4,40.1-5.8,42.1l0.8,32.6L356.7,699.7z"/>
	<path class="st3" d="M376.6,564.2l1.4-4.8c0,0,14.7-10.9,37.3,17.3L404.5,596L381,595L376.6,564.2z"/>
	<path class="st2" d="M410.6,526.8c4.2,17.1-12.3,18.4-31.8,23.2s-34.7,11.2-38.9-5.9s-3.8-49.4,23.8-56.1
		C392.2,481,406.4,509.7,410.6,526.8z"/>
</g>
<circle class="st1" cx="164.7" cy="367.2" r="24.5"/>
<path class="st2" d="M136.7,371.6l9.4-2.3l1.3-12.6l3.7,11.4l4.5-1.1l0.8-7.4l2.1,6.7l33.4-8.2c-3.4-13.9-17.4-22.4-31.3-19
	l-4.8,1.2C141.8,343.6,133.3,357.6,136.7,371.6L136.7,371.6L136.7,371.6z"/>
<path class="st1" d="M206.7,488.3c-0.6,0.2-1.2,0.4-1.7,0.6l-46-29.4l0.6-13.2l-19.9-3.5l-3.3,23.3c-0.5,3.9,1.5,7.6,5.1,9.2
	l56.6,25.5c0.8,6.3,6.6,10.8,12.9,10c6.3-0.8,10.8-6.6,10-12.9c-0.8-6.3-6.6-10.8-12.9-10C207.6,488.1,207.2,488.2,206.7,488.3
	L206.7,488.3z"/>
<path class="st3" d="M161.7,405.9l-3.5-4.4c0,0-13.9-4.5-21.4,14.3s-0.5,37.1-0.5,37.1l32.9,2.8l2.3-30.5L161.7,405.9z"/>
<path class="st0" d="M527.3,130.7h256.6v84.2h-9.7v22l-22-22H527.3L527.3,130.7z"/>
<path class="st4" d="M534.4,138.9h242.3v67.4H534.4V138.9z"/>
<path class="st3" d="M553.9,158.6h116.7v3.5H553.9V158.6z"/>
<path class="st0" d="M553.9,170.8h203.4v3.5H553.9V170.8z"/>
<path class="st0" d="M553.9,183.1H757v3.5H553.9V183.1z"/>
<path class="st0" d="M630.5,0H373.9v84.2h9.7v22l22-22h224.8V0z"/>
<path class="st4" d="M381.1,8.2h242.3v67.4H381.1L381.1,8.2z"/>
<path class="st3" d="M402.5,28.5h116.7v3.5H402.5V28.5z"/>
<path class="st0" d="M402.5,40.8h203.4v3.5H402.5V40.8z"/>
<path class="st0" d="M402.5,53h203.2v3.5H402.5L402.5,53z"/>
<path class="st5" d="M312.9,379.6h-0.5v-12.4c0-4-3.2-7.2-7.2-7.2l0,0h-26.4c-4,0-7.2,3.2-7.2,7.2c0,0,0,0,0,0v68.3
	c0,4,3.2,7.2,7.2,7.2l0,0h26.4c4,0,7.2-3.2,7.2-7.2l0,0v-47h0.5L312.9,379.6z"/>
<path class="st4" d="M305.5,361.9h-3.4c0.5,1.3-0.1,2.8-1.4,3.3c-0.3,0.1-0.6,0.2-1,0.2h-15.1c-1.4,0-2.6-1.1-2.6-2.6
	c0-0.3,0.1-0.7,0.2-1H279c-3,0-5.4,2.4-5.4,5.4l0,0v68.2c0,3,2.4,5.4,5.4,5.4c0,0,0,0,0,0h26.5c3,0,5.4-2.4,5.4-5.4v0v-68.2
	C310.9,364.3,308.5,361.9,305.5,361.9L305.5,361.9L305.5,361.9z"/>
<path class="st4" d="M598.5,248.5H283.4V352h11.9v27l27.1-27h276.1V248.5z"/>
<path class="st5" d="M294.4,381.4V353h-11.9V247.5h317.1V353H322.8L294.4,381.4z M284.4,351h11.9v25.6L322,351h275.5V249.5H284.4
	L284.4,351z"/>
<path class="st5" d="M428.9,582h-381c-0.6,0-1-0.4-1-1s0.4-1,1-1h381c0.6,0,1,0.4,1,1S429.4,582,428.9,582z"/>
<path class="st6" d="M719.1,954.9c-40.5-6.5-78,1.1-112.7,23l-9.4-46.1c34.5-18.6,73.7-26.6,112.7-23L719.1,954.9z"/>
<path class="st6" d="M701.5,948.6c-29.2-4.7-56.3,0.8-81.3,16.6l-6.8-33.2c24.9-13.4,53.2-19.2,81.3-16.6L701.5,948.6z"/>
<g>
	<ellipse class="st7" cx="500.2" cy="304.7" rx="17" ry="9"/>
	<g>
		<path class="st6" d="M565.2,334.7c-38.3-14.5-76.7-14.5-115,0v-47c37.5-11.3,77.5-11.3,115,0V334.7z"/>
		<path class="st6" d="M549.2,325c-27.7-10.4-55.3-10.4-83,0v-33.9c27.1-8.2,55.9-8.2,83,0V325z"/>
	</g>
	<ellipse class="st6" cx="506.2" cy="300.7" rx="17" ry="9"/>
</g>
<g>
	<ellipse class="st7" cx="360.9" cy="288.4" rx="17" ry="9"/>
	<g>
		<path class="st6" d="M425.9,318.4c-38.3-14.5-76.7-14.5-115,0v-47c37.5-11.3,77.5-11.3,115,0V318.4z"/>
		<path class="st6" d="M409.9,308.7c-27.7-10.4-55.3-10.4-83,0v-33.9c27.1-8.2,55.9-8.2,83,0V308.7z"/>
	</g>
	<ellipse class="st6" cx="366.9" cy="284.4" rx="17" ry="9"/>
</g>
</svg>
