<?xml version="1.0" standalone="no"?>
<!DOCTYPE svg PUBLIC "-//W3C//DTD SVG 1.1//EN" "http://www.w3.org/Graphics/SVG/1.1/DTD/svg11.dtd" >
<svg xmlns="http://www.w3.org/2000/svg">
<metadata>Generated by IcoMoon</metadata>
<defs>
<font id="icomoon" horiz-adv-x="1024">
<font-face units-per-em="1024" ascent="960" descent="-64" />
<missing-glyph horiz-adv-x="1024" />
<glyph unicode="&#x20;" horiz-adv-x="512" d="" />
<glyph unicode="&#xe900;" glyph-name="technology" d="M61.6 892.4c-19.6-4.8-40.4-19.6-50.4-35.6l-9.2-14.8v-640l11.2-16.4c6-8.8 18.4-20.4 28-26l16.8-9.6 438-2.4v-115.6h-91.6c-50.4 0-94.4-1.2-98-2.4-8.8-3.6-8-20.4 1.2-25.6 10.8-5.6 398-5.6 408.8 0 9.2 5.2 10 22 1.2 25.6-3.6 1.2-47.6 2.4-98 2.4h-91.6v115.6l438 2.4 16.8 9.6c9.6 5.6 22 17.2 28 26l11.2 16.4v640l-9.2 15.2c-5.2 8-18 20-28 26l-18.8 10.8-446 0.8c-245.2 0-451.6-0.8-458.4-2.4zM970.4 856.4c22.4-14.8 21.6-1.2 21.6-334.4 0-336.4 1.2-321.6-23.2-334.8-14.8-7.6-898.8-7.6-913.6 0-24.4 13.2-23.2-1.6-23.2 335.6 0 282 0.4 308.4 6.8 317.2 7.2 10.8 14.8 16.4 27.2 20.8 4.4 1.2 207.6 2 452 2 375.6-0.8 445.2-1.6 452.4-6.4zM581.6 698.4c-16.4-7.2-29.2-24.4-32-42.8-2.4-15.2-4.4-16.4-51.2-43.2-67.2-38.4-67.6-38.8-78.8-30.8-5.2 3.6-16.8 6.4-25.6 6.4-56 0-72-72-22-98 15.6-8 27.2-7.6 44.8 2l14.8 8 58-32.8c56-32 57.6-33.2 59.6-47.6 4.8-37.2 42.8-58 74.8-41.6 18.4 9.6 28 24.8 28 44.8 0 40.8-41.2 66-74.8 45.2l-12.8-7.6-60.4 34c-48.8 27.6-60 35.6-60 42.8s11.2 15.2 59.2 42.4c58.4 32.8 58.8 33.2 70 26.8 6.4-3.6 18.8-6.4 27.6-6.4 30.4 0 51.2 21.2 51.2 52 0 20.4-10.4 36.4-29.6 45.6-16.4 7.6-24.4 8-40.8 0.8z" />
<glyph unicode="&#xe901;" glyph-name="business" d="M556 952.4c-2.4-5.2-4-84.4-4-230 0-196.4 0.8-222.4 6.4-228s31.6-6.4 228-6.4c145.6 0 224.8 1.6 230 4 9.6 5.2 10 26.4 1.6 78-14.4 90.8-49.2 166.4-106.8 232-73.6 84-165.2 134.4-277.2 152-51.6 8.4-72.8 8-78-1.6zM674.8 918c170.4-43.2 302-196.8 319.2-373.2l2.8-28.8-414.8 2-1.2 207.6-0.8 207.2 28.8-2.8c16-1.6 45.6-7.2 66-12zM374.4 841.6c-116.8-21.2-230.4-96-296-194.8-27.6-41.6-38.4-64-54-109.2-51.6-151.2-17.6-323.2 88.4-443.6 104.4-119.2 257.2-175.6 412.8-152 93.6 14 180.8 58 249.2 125.2 83.6 81.6 137.2 202 137.2 307.2 0 20.8-1.2 26-7.6 29.6-5.2 2.4-81.6 4-220 4h-212.4v212.4c0 138.4-1.6 214.8-4 220-3.6 6.4-8.4 7.6-33.2 7.2-16 0-42.8-2.8-60.4-6zM444.8 601.2l1.2-219.2 438-2v-17.2c0-22.4-9.6-72.4-20-103.2-47.2-139.6-160.8-245.6-302-282-276-70.8-545.6 148-532.8 432.4 6.4 138 75.6 261.6 190 338.8 58.4 39.6 144.8 69.6 203.6 70.8l21.2 0.4 0.8-218.8z" />
<glyph unicode="&#xe902;" glyph-name="square" d="M498 902c-111.6-17.6-208.4-70.4-279.2-152-55.6-64.4-89.2-134-106-220l-7.2-35.6-34.4 49.6c-18.8 27.6-37.2 55.2-41.2 61.2-8 12.4-20.4 13.2-27.6 2-3.6-5.6 5.6-21.6 52.4-90 40.4-59.6 58.4-83.2 63.6-82.8 7.6 0 160.8 102.8 166.4 111.2 5.2 7.6 3.6 14-5.2 18.8-7.6 4-16-0.8-74-40-35.6-24.4-66-44.4-67.2-44.4-4 0-2.4 19.6 4 51.2 21.6 105.2 78.8 195.6 165.6 261.6 32.4 24.8 104.4 60 144.4 70.8 68.4 18.4 155.2 18.4 221.6 0.4 156.4-42 278.4-171.2 312-330 9.2-43.2 9.2-128.8 0-172-39.2-184.8-194.8-324.4-380-341.6-37.2-3.2-92.8-0.8-126 5.6-47.6 9.6-107.6 34-153.2 63.2-28 18-81.6 68.8-105.6 100-19.2 24.8-34.4 30.4-39.2 14.4-4.4-14 43.2-71.6 90-109.2 136-109.2 309.2-135.2 468.8-70.4 191.6 78 308.4 285.2 277.6 492-37.6 249.2-274.8 425.2-520.4 386zM552 732c-2.8-5.2-4-54.4-3.2-149.2l1.2-140.8 71.6-86c60-72.4 72.8-86 82-86 23.2 0 15.6 13.6-55.2 99.2l-68.4 82.4v139.6c0 102.8-1.2 140.4-4.8 144-7.2 7.2-18.4 5.6-23.2-3.2z" />
<glyph unicode="&#xe903;" glyph-name="like" d="M614.8 952c-6.8-5.6-11.6-14.8-14.4-28.4-9.2-42.4-42-112-78-165.6-8.8-13.2-36-50.8-60.4-84-24.8-32.8-65.2-90.4-90-128-24.8-37.2-55.6-78-68-90-23.2-23.2-55.6-41.2-80.8-46l-15.2-2.8v30.8c0 49.2 6.8 46-99.6 46-79.6 0-92-0.8-94-6.4-1.2-3.6-2.4-124.4-2.4-269.2 0-199.2 1.2-264 4.8-267.6s30-4.8 94-4.8c104.4 0 97.2-3.6 97.2 49.6v34.4h83.2c74.8 0 86.4-0.8 118.8-9.6 87.2-23.6 186-33.2 292-28.4 129.6 5.6 198.4 23.6 215.6 57.2 8.8 17.2 12 48.4 6.4 68.8-4.4 16-4 18.4 2 22 25.6 14.8 45.6 34.8 52 51.6 9.2 23.6 6.4 60.4-6 81.2l-8.4 14.4 14 11.2c37.6 31.2 44.8 87.6 16.4 129.2l-10 14.8 9.6 12.8c11.2 15.2 18.4 38.4 18.4 61.2 0 36-18.4 65.6-49.6 80-20 9.2-22 9.6-147.2 9.6-140.8 0-139.2-0.4-139.2 26.8 0 7.6 8 34 17.6 58.4 41.2 104 46.8 164 20.8 220.8-20.8 46-72 71.6-99.6 50zM664.8 919.2c18-12.4 31.6-45.6 34-82.4 2.8-38-5.6-74.4-32.8-143.2-20.4-51.6-24-78-14.4-100.8 10-24 14.8-24.8 150.8-24.8 133.2 0 146-1.6 164.4-20.8 8.8-9.2 11.2-15.6 12.4-36.8 2-30.8-6-50.4-25.6-62.8-17.2-10.4-17.2-20 0.4-33.2 18.4-14 26-29.6 26-53.2 0-24.8-9.6-40-37.6-61.2-12.4-8.8-22.4-18-22.4-20.4s5.2-8.8 11.6-14.8c18-16.8 23.2-32.4 20.8-63.6-0.8-14.4-20.8-34-47.2-46-28-12.8-30.4-18.4-17.2-40 5.2-8.8 8-20.4 8-34.4 0-18-1.6-23.2-10.8-32.4-23.6-23.2-109.2-36.4-240-36.4-84.8 0-142.8 6.8-213.2 24.8-46.8 11.6-55.6 12.8-136.8 14.4l-87.2 1.6v323.2l11.2 2.4c46.8 10 80.8 28.8 113.6 62.8 10.8 11.2 43.2 55.6 72 98.4 29.2 43.2 72.8 105.6 97.2 138.4 24.8 33.2 52.4 72.8 61.6 88 29.6 48.8 58.4 114.8 66.4 151.2 2.8 13.6 17.2 14.8 34.8 2zM176 212v-244h-132v488h132v-244z" />
<glyph unicode="&#xe904;" glyph-name="shopping-basket" d="M322.8 786l-102.4-86h-90.8c-84 0-91.6-0.4-103.6-8-22-13.6-26-27.6-26-94 0-45.6 1.6-62 6.4-72.4 9.2-19.6 28-29.6 55.2-29.6 15.2 0 22.4-1.6 22.4-4.8 0-2.8 10-100 21.6-216 20.8-204.8 21.6-211.6 31.6-224.4 21.6-28.4 0.8-26.8 374.8-26.8s353.2-1.6 374.8 26.8c10 12.8 10.8 19.6 31.6 224.4 11.6 116 21.6 213.2 21.6 216 0 3.2 7.2 4.8 23.2 4.8 27.6 0 44.8 9.2 54 29.2 5.6 11.2 6.8 26 6.8 72.8 0 66.4-4 80.4-26 94-12 7.6-19.6 8-103.6 8h-90.8l-100.8 84.8c-55.2 46.8-104 84.8-108.4 84.8-10.4 0.4-17.6-11.6-12-20.4 2.4-4 41.6-38.8 87.6-77.2l83.2-70-120.4-1.2c-66.4-0.4-175.2-0.4-241.6 0l-120.4 1.2 83.2 70c46 38.4 85.2 73.2 87.6 77.2 5.2 8-0.8 20-10.4 22-2.8 0.4-51.6-37.6-108.4-85.2zM980 666.8c10-4.8 10-5.6 11.2-66.4 0.8-42-0.4-63.2-3.6-66.8-4-4.8-79.2-5.6-475.6-5.6s-471.6 0.8-475.6 5.6c-3.2 3.6-4.4 24.8-3.6 66.8 1.2 60.8 1.2 61.6 11.2 66.4 8 4 106.8 5.2 468 5.2s460-1.2 468-5.2zM908 489.2c0-4-9.2-96.4-20-205.2s-20-200.4-20-203.2c0-2.8-4.4-9.6-10-14.8l-9.6-10h-672.8l-9.6 10c-5.6 5.2-10 12-10 14.8s-9.2 94.4-20 203.2c-10.8 108.8-20 201.2-20 205.2 0 6.4 21.6 6.8 396 6.8s396-0.4 396-6.8zM276.8 403.2c-6.8-6.8-6.8-239.6 0-246.4 7.2-7.2 18.4-5.6 23.2 2.8 2.4 4.8 4 50.8 4 122 0 98-0.8 114.8-6.4 120-7.6 7.6-14.4 8-20.8 1.6zM426.4 401.6c-5.6-5.2-6.4-22-6.4-120 0-71.2 1.6-117.2 4-122 4.8-8.4 16-10 23.2-2.8 6.8 6.8 6.8 239.6 0 246.4-6.4 6.4-13.2 6-20.8-1.6zM576.8 403.2c-6.8-6.8-6.8-239.6 0-246.4 7.2-7.2 18.4-5.6 23.2 2.8 2.4 4.8 4 50.8 4 122 0 98-0.8 114.8-6.4 120-7.6 7.6-14.4 8-20.8 1.6zM726.4 401.6c-5.6-5.2-6.4-22-6.4-120 0-71.2 1.6-117.2 4-122 4.8-8.4 16-10 23.2-2.8 6.8 6.8 6.8 239.6 0 246.4-6.4 6.4-13.2 6-20.8-1.6z" />
<glyph unicode="&#xe905;" glyph-name="car" d="M162.4 702c-8.8-2.8-21.6-11.6-28.8-18.8-22.4-23.2-129.2-183.2-132-198-3.2-16.4 15.6-142.8 24.8-168 12-33.6 37.2-45.2 95.6-45.2h36l7.2-19.6c4.4-12.4 13.2-25.2 24.4-35.6 50.4-46.4 126.4-31.6 156.4 30.4l12 24.4 162 0.4h162l7.2-19.6c14.8-42 64.8-70 109.2-61.2 36 7.6 68.8 36 77.2 67.2 2.8 11.6 3.2 11.6 42.8 14 41.6 2.4 52.4 5.6 70.8 22.8 13.6 12.8 20 34.8 29.2 99.6 6.4 46.4 6.4 49.6 0 66.8-8 21.2-25.2 36-48.4 41.6-8.8 2.4-64 9.2-122.4 15.2l-106 11.2-94 79.2c-51.6 43.2-101.6 83.2-111.6 88-17.6 9.2-20 9.2-188 10-138.4 0.8-172.8 0-185.6-4.8zM516.4 671.2c7.2-2.4 56.8-40.8 109.6-85.2 52.8-44 98-81.6 100.8-83.2 2.4-1.6 54.8-8.4 116-15.2 61.2-6.4 117.2-14 124.4-16 9.2-3.2 15.2-8.8 19.6-18 6.4-12.8 6-17.2-1.6-70.4-11.2-74-13.6-76.8-66.8-78.4l-37.2-1.6-7.2 18.8c-23.6 62-96.4 85.2-150.4 47.6-17.2-12-34.8-36.4-38.4-53.6l-2-12h-326l-7.2 18.8c-16 42-56 67.6-100 64.4-13.6-1.2-30-5.2-36.8-8.8-20-10-40.8-34-48.4-55.2l-6.8-19.2h-37.2c-38.8 0-56.8 5.2-64.4 19.2-6 11.2-26 146.4-23.2 157.2 3.6 13.6 108 166.4 125.2 182.8l13.6 12.8h165.2c116.8 0 169.6-1.2 179.2-4.8zM292.4 346.8c21.2-14.4 31.6-32.8 31.6-56.4 0-60.4-66.4-92-110.8-53.2-26.4 23.2-32 52.8-16 83.2 18 33.6 64.8 46.8 95.2 26.4zM818.8 345.6c18.4-14 26.4-28 28.4-50.8 5.2-65.2-67.6-99.6-113.6-53.2-33.2 32.8-26 85.2 14.4 107.2 18.4 10 55.2 8.4 70.8-3.2zM140 512.8c-7.6-6.4-8.4-8.8-4.4-16l4.8-8.8h229.6c126 0 232 1.2 235.6 2.4 8.8 3.6 8 20.4-1.2 25.6-5.2 2.4-85.2 4-231.6 4-210.4 0-224.4-0.4-232.8-7.2z" />
<glyph unicode="&#xe906;" glyph-name="flash" d="M652.8 953.2c-19.2-16.4-400.8-474.8-400.8-481.6 0-4 3.2-8.8 7.2-10.8 3.6-2 49.6-16 102-30.8 52-14.8 94.8-28.8 94.8-31.2 0-2-36.4-103.6-80.8-225.6-84-231.2-85.2-235.2-63.6-235.2 6.4 0 64.4 65.2 234.4 264 124.4 145.2 226 266.8 226 270.4s-2.4 8.4-4.8 10.8c-2.8 2-49.2 16.4-103.2 32-86.4 24.4-98 28.8-96.4 35.2 0.4 4.4 26.4 94.8 57.2 201.6 39.2 136 54.8 195.6 52 200-5.6 8.8-14.4 9.2-24 1.2zM579.6 708c-26-91.2-47.6-169.6-47.6-174.4s2.4-10.4 5.2-12.8c2.4-2 45.2-15.2 94.8-29.2 49.6-13.6 91.2-26 92.8-27.6 2.4-2-329.2-393.2-359.2-424l-10-10 9.6 26c60.8 162.4 126.8 348.8 126.8 357.2 0 11.6 2.4 10.8-129.6 48.4-34.8 10-64.4 18.8-65.2 19.6-1.6 1.6 328 394.8 329.6 393.2 0.4-0.4-20.8-75.2-47.2-166.4z" />
<glyph unicode="&#xe907;" glyph-name="placeholder" d="M448 954c-145.2-27.6-257.2-128.8-298-268.8-12.8-43.2-17.2-104-10.4-143.2 12.8-74 60-173.2 145.6-307.2 74-115.6 212.8-298.8 226.8-298.8s150.8 180.4 229.2 302.4c82 127.6 130.4 230.4 143.2 303.6 2.8 16.8 3.6 43.6 2.4 68-9.6 161.6-128.4 300.8-290.8 340-37.2 9.2-111.2 11.2-148 4zM616 912.4c142.4-45.6 240.4-177.2 240.4-323.6 0-87.6-49.2-196.8-173.6-382.8-53.2-79.2-164-226-170.8-226s-117.6 146.8-170.8 226c-122.8 183.6-173.6 295.2-173.6 380 0 122 64 232.8 172.4 296.4 57.2 33.6 109.2 46 184 44 46.4-1.6 59.2-3.6 92-14zM461.6 750c-82.8-26-134.4-108.8-121.2-194 11.2-74 69.6-132 145.6-145.2 71.6-12.4 149.6 28.4 182 94.8 47.2 97.6-3.2 213.2-107.6 244.8-22.4 6.8-76.4 6.8-98.8-0.4zM566.8 715.2c28.8-10.8 58.4-38.4 73.2-68.4 47.2-97.2-20.8-206.8-128-206.8-66 0-119.2 40.8-138 106-22.8 77.6 29.2 161.2 110 177.6 23.2 4.8 56.4 1.6 82.8-8.4z" />
<glyph unicode="&#xe908;" glyph-name="speech-bubble" d="M452 947.6c-273.2-24-464.8-210.8-450.4-439.2 8.8-136.4 65.6-234.8 176.8-306.8l33.6-21.6v-114c0-103.2 0.8-114 6.8-117.6 9.6-5.2 14-2.4 145.2 85.2l114 76.4 60 2.8c121.6 5.6 214.4 34 304.4 93.6 215.2 142 242.8 426.4 58.8 602-84.4 80.4-197.2 127.2-335.2 139.2-53.2 4.8-59.2 4.8-114 0zM593.2 914c172.4-22.8 307.2-110.8 366.8-239.2 20.8-44.8 28.4-77.2 30.8-128.8 4.8-100.8-31.2-190.8-105.6-264.4-86.8-86-201.6-130.8-349.2-137.2l-66-2.8-109.2-72.8c-60.4-40.4-112-74.4-115.2-75.6-4.4-1.6-5.6 14.8-6.4 103.2l-1.2 105.2-25.2 14.4c-87.2 49.2-144 121.6-169.2 216-7.6 28-9.2 44.4-9.6 94 0 68.8 5.2 95.2 30 148.8 79.2 170.8 298.4 270 529.2 239.2z" />
<glyph unicode="&#xe909;" glyph-name="plug" d="M232 953.6c-16.8-7.2-34.4-23.2-43.2-39.6-6-10.4-6.8-31.2-8-162.8l-1.2-151.2h-12.4c-19.6 0-45.6-14.8-56-31.2-9.2-14.8-9.2-16.4-10.4-167.2-1.2-170.4 0.4-187.6 24-236 17.2-35.6 60-80 93.2-96.8 36-18 61.6-24.4 112.4-27.2l45.6-2.8v-45.2c0-35.6 1.2-46.4 6.4-51.2 5.2-5.6 22.8-6.4 129.6-6.4s124.4 0.8 129.6 6.4c5.2 4.8 6.4 15.6 6.4 51.2v45.2l45.6 2.8c50.8 2.8 76.4 9.2 112.4 27.2 33.2 16.8 76 61.2 93.2 96.8 23.6 48.4 25.2 65.6 24 236-1.2 150.8-1.2 152.4-10.4 167.2-10.4 16.4-36.4 31.2-56 31.2h-12.4l-1.2 151.2c-1.2 131.6-2 152.4-8 162.8-34.4 62-122.4 60.4-149.2-2.8-5.2-12.4-6-38.4-6-163.2v-148h-336v149.2c0 136-0.8 150-7.6 164.8-18 38.8-64.8 56.8-104.4 39.6zM286.4 921.6c25.6-12 25.6-13.2 25.6-175.6v-146h-100l0.4 141.2c0 155.6 1.2 162.8 23.2 177.6 16 10.8 32 11.6 50.8 2.8zM788.4 918.8c22-14.8 23.2-22 23.2-177.6l0.4-141.2h-100v146c0 161.6 0.4 163.2 24.8 175.2 18.4 9.2 35.6 8.4 51.6-2.4zM880.4 557.6l9.6-10.4v-158.4c0-144-0.8-160.8-7.2-180-22.8-64.8-72-111.6-134.8-128.8-20.8-5.6-403.2-8.4-450-3.2-70.8 8-131.2 58.8-156.8 132-6.4 19.2-7.2 36-7.2 180v158.4l19.2 20.8h717.6l9.6-10.4zM616 4v-36h-208v72h208v-36zM488.8 402c-26.8-32-48.8-60.8-48.8-64 0-7.6 14.8-17.2 31.6-20.4 9.6-2 12.4-4.4 10.4-9.2-16.8-42-30-84.4-29.2-92.4 0.8-7.2 4-10.4 11.2-11.2 8.4-0.8 18 8 62 59.6 28.8 33.6 53.6 63.6 55.2 66.4 6.4 10.8-1.2 21.2-19.6 25.6-9.6 2.4-18.4 6-19.6 7.6-0.8 1.6 2.8 18.8 8.4 38 12.4 42.4 11.6 55.6-2.8 57.2-8.8 1.2-16.8-6.8-58.8-57.2z" />
<glyph unicode="&#xe90a;" glyph-name="rain" d="M432 886.4c-102.4-21.6-198.4-104.4-230-198.8l-6.4-18.4-26.4-4.4c-112.8-18.8-191.2-134.8-163.2-242 19.6-74.8 75.2-129.6 150.4-148.4 32.8-8 45.2-8 53.2 0 13.6 13.6 4.8 21.6-30.8 27.6-41.6 7.2-70.8 21.6-96.4 47.2-54.4 54-65.6 129.6-30.4 198.8 10.8 21.2 40.4 51.2 64 65.2 20.4 12 58.8 22.8 80.4 22.8 17.6 0 22.8 5.2 32.4 34 23.6 70.4 82.4 135.6 149.2 166 82 36.8 189.6 30.8 262.4-15.2 26.4-17.2 59.2-47.2 78.4-72.4 18.8-24.8 20-28.4 10.8-28.4-14.8 0-66.4-29.2-89.6-50.4-24.8-23.2-29.2-34.4-16.4-41.6 10.8-5.6 10-6 34 15.6 42.4 38.4 78.4 52.4 134.4 52.4 57.6 0 102-18.4 142.4-58.8 76-75.6 75.6-198.8-0.4-275.6-36.4-36.4-74.8-54.8-124.8-60-28.4-3.2-37.2-10.8-29.2-25.6 5.6-10.4 28.4-10.4 70 0 66 16.8 119.6 60.4 149.2 120.8 18.4 38 24.8 64 24.8 102.8 0 122.8-100.4 226.4-223.2 229.6l-32.4 1.2-16 24c-18 26.8-53.6 63.2-81.2 82.8-23.2 16.8-66 36.4-97.2 45.2-32 8.8-108.4 10.8-142 4zM331.6 293.6c-7.2-8.4-35.2-98-32.8-104.4 3.2-8 17.6-10.8 23.6-4.4 3.2 2.8 12.4 26.8 20.4 52.8 11.2 35.6 13.6 48.8 10.4 53.6-5.6 9.2-14.8 10.4-21.6 2.4zM489.2 297.6c-2.8-1.2-12.4-25.6-22-54-16-48.4-16.4-52-10.4-58.4 5.6-5.2 8.8-5.6 16.4-2.4 12.8 6 42.8 101.6 34.8 111.2-5.2 6-10 6.8-18.8 3.6zM641.2 295.2c-5.2-6.4-33.2-90.8-33.2-99.6 0-9.6 10.4-16.8 19.6-13.6 8 2.4 10.8 10.4 38.8 98.4 2 7.6-8 19.6-16 19.6-3.2 0-7.2-2.4-9.2-4.8zM275.2 117.2c-3.6-4-13.2-28.4-21.2-54.4-15.2-49.2-14.8-58.8 2-58.8 10.4 0 13.6 5.6 29.6 54 16.8 50.8 17.2 56.4 6.8 62-10 5.2-10 5.2-17.2-2.8zM430.4 118c-3.2-3.6-12.4-27.2-20.8-52.8-15.6-50-15.2-59.2 2.8-59.2 8.8 0 11.2 4.8 26.4 48 19.2 55.6 19.2 55.2 10.8 63.6-7.6 8-11.6 8-19.2 0.4zM587.2 119.6c-7.6-4-36.4-92-34.4-104.8 1.6-12.8 20-14 26-2 8 16 29.2 84.8 29.2 94 0 10.8-11.6 18-20.8 12.8z" />
<glyph unicode="&#xe90b;" glyph-name="woman" d="M446.4 955.6c-193.2-26.8-358-161.6-418.4-342.8-20-60.8-25.6-96.8-25.6-164.8 0-109.6 24.8-193.2 84.8-284 72.8-110.4 191.2-190 324.8-218.8 47.6-10 152.4-10 200 0 48 10.4 88 24.8 133.6 48 115.6 58.8 209.6 168 250.4 290 20 60.8 25.6 96.8 25.6 164.8 0 44.4-2 71.6-6.8 96-22.8 108.4-71.2 196.8-148.4 271.2-72.8 70-156.4 114.4-256.4 134.8-38.4 8-125.6 11.2-163.6 5.6zM620 916.4c89.6-22.4 159.6-60.8 224.4-123.2 69.2-66.8 112-141.6 136.4-239.2 7.6-30.4 8.8-46.8 8.8-106s-1.2-75.6-8.8-106c-16-63.2-35.6-109.2-68-158-24-36-78.4-96-87.2-96-2.8 0-26.8 9.2-53.2 20.4-69.2 29.2-96.4 48-114 78.4-1.6 3.2 3.2 6.4 14.4 9.2 54.4 14.4 119.2 60 140 98.4 18 34 18 34.8-6 60.8-45.2 49.2-57.6 84.8-62.8 180.8-6.8 124-23.2 172.8-74 219.6-35.2 32.4-87.2 48.4-158 48.4s-122.8-16-158-48.4c-50.8-46.8-67.2-95.6-74-219.6-5.2-96-17.6-131.6-62.8-180.8-24-26-24-26.8-6-60.8 20.8-38.4 85.6-84 140-98.4 11.2-2.8 16-6 14.4-9.2-17.6-30.4-44.8-49.2-114-78.4-26.4-11.2-50.4-20.4-53.2-20.4-8.8 0-63.2 60-87.2 96-32.4 48.8-52 94.8-68 158-7.6 30.4-8.8 46.8-8.8 106 0 75.2 5.6 109.6 27.6 168 52 136 164 243.6 302 289.2 15.6 5.2 56.8 14.8 88 20.4 5.6 0.8 38 1.2 72 0.4 46-0.8 70.8-3.6 96-9.6zM580.8 765.6c32-7.6 58.4-22 77.6-42.4 34.4-35.6 48-81.2 53.6-179.2 2-36.4 5.6-75.2 7.6-86.4 8.4-42.8 29.6-86 57.6-116.8l16.4-17.2-7.6-14.4c-18.8-34.4-70-68.4-128.8-84.8-38-10.4-38.4-10.8-36-27.2 7.6-44.8 67.2-92.8 154-123.6 11.6-4 20.8-8.8 20.8-10 0-4.4-39.2-29.2-71.2-45.2-67.2-34-131.6-48.4-212.8-48.4s-145.6 14.4-212.8 48.4c-32 16-71.2 40.8-71.2 45.2 0 1.2 9.2 6 20.8 10 86.8 30.8 146.4 78.8 154 123.6 2.4 16.4 2 16.8-36 27.2-58.8 16.4-110 50.4-128.8 84.8l-7.6 14.4 16.4 17.2c28 30.8 49.2 74 57.6 116.8 2 11.2 5.6 50 7.6 86.4 8 138.4 38 192.8 121.6 220 36 11.6 103.2 12.4 147.2 1.6z" />
<glyph unicode="&#xe90c;" glyph-name="medical-result" d="M482 952.4c-18-8-36.8-28-40.4-42.8l-2.4-9.6h-66.8c-46.8 0-68.4-1.6-71.6-4.8-2.8-2.8-4.8-11.6-4.8-19.6v-15.2l-57.6-1.2c-62.8-1.2-69.2-3.2-88-28.8-8.4-10.8-8.4-14-9.6-427.2l-0.8-416.4 10-16.8c6.4-11.6 15.6-20 27.2-25.6 17.2-8.4 20.8-8.4 334.8-8.4s317.6 0 334.8 8.4c11.6 5.6 20.8 14 27.2 25.6l10 16.8-0.8 416.4c-1.2 413.2-1.2 416.4-9.6 427.2-18.8 25.6-25.2 27.6-88 28.8l-57.6 1.2v15.2c0 8-2 16.8-4.8 19.6-3.2 3.2-24.8 4.8-71.6 4.8h-66.8l-2.4 9.6c-3.6 14.8-22.4 34.8-40.4 42.8-20.4 9.6-39.6 9.6-60 0zM536.4 922.8c9.6-6.4 15.2-14.8 20-28.8l6.4-20 68.4-1.2 68.8-0.8v-116h-376v116l68.4 0.8 68.4 1.2 6.4 20c11.6 34.4 42 47.2 69.2 28.8zM296 786.4c0-25.2 1.2-48.4 2.4-52 2-5.6 24.8-6.4 213.6-6.4s211.6 0.8 213.6 6.4c1.2 3.6 2.4 26.8 2.4 52v45.6h104.8l23.2-23.2v-409.6c0-381.6-0.8-409.6-7.2-417.6-3.6-4.8-10.8-10.8-15.6-13.2-12.4-6.4-630-6.4-642.4 0-4.8 2.4-12 8.4-15.6 13.2-6.4 8-7.2 36-7.2 417.6v409.6l23.2 23.2h104.8v-45.6zM562 533.2c-1.6-4-24.4-68.4-50.8-143.2s-48.4-136.4-48.8-137.2c-0.8-0.4-12.4 24.8-26.4 56-36.8 84-24.4 75.2-103.2 75.2-36.8 0-69.2-1.6-72-3.6-3.2-1.6-4.8-7.6-4-12.8 1.2-9.6 1.6-9.6 64.8-11.6l63.6-2 32.8-74c18-40.4 35.6-75.6 38.8-77.6 3.6-2 8.8-2.8 12-1.6 3.2 1.6 26 59.6 54.8 142 27.2 76.4 50.4 140.4 52 142s16.4-26 32.8-62l30-64.8h127.6l1.2 9.6c0.8 5.2-0.8 11.2-4 12.8-2.8 2-28 3.6-55.6 3.6h-50l-36 77.2c-32 68-37.2 76.8-46.4 78-6.8 0.8-11.2-1.2-13.2-6z" />
<glyph unicode="&#xe90d;" glyph-name="cloud" d="M612.4 633.6c-30-8-58.8-24.4-81.6-46-13.2-12.8-18.4-20.4-16.4-24.8 3.6-10 14.8-8.4 26 3.6 5.2 6 18.8 16.4 29.6 23.6 86 55.2 202 23.2 246-68 29.6-61.2 22-129.6-20.8-185.2-15.6-20-16-21.6-9.6-28 6.8-6.4 8-5.6 23.2 11.2 52.4 58.4 61.6 143.6 24.4 218-13.2 25.6-54 66-80.4 79.6-43.2 22-96 28-140.4 16zM313.2 527.6c-43.2-7.2-87.2-30.4-120.4-63.6-18.8-18.8-41.6-54.4-48.4-76.4-4.4-13.6-6-14.8-27.6-19.2-75.6-14.8-127.2-87.6-113.6-160.4 8.8-48.8 36-84 80.8-105.6l26-12.4 230-1.2c162.4-0.8 237.2 0 254 3.2 32.8 6.4 59.6 21.2 84.8 46.4 97.6 97.6 34 266-104.4 276.4l-30 2.4-14.8 21.6c-20.8 30.4-46.4 51.6-83.6 69.2-45.6 21.6-85.2 27.6-132.8 19.6zM404.4 501.6c31.6-9.6 55.2-22.4 78.4-43.6 18.8-16.8 40.4-44.8 36.8-47.6-0.8-0.8-12.8-6-26-12-26-11.6-60.4-42.4-56-50 4.8-7.6 14.4-4.8 34.4 11.2 45.6 36 101.6 42.4 152.8 17.2 41.6-20.4 66-52.8 75.2-100 5.6-28.8 0.8-63.6-12.8-90-11.6-22.8-40.4-50-66.4-62l-22.8-10.8h-492l-16.8 9.2c-70 37.2-87.2 126.8-35.6 187.6 14.4 17.2 55.2 37.2 76 37.2 22 0 24.4 2.4 34.4 28.8 23.2 62 72 106.8 136 125.2 25.6 7.6 78.4 7.2 104.4-0.4z" />
<glyph unicode="&#xe90e;" glyph-name="sun" d="M500 952.4c-4.4-8.4-5.6-119.2-1.6-130 3.2-8.4 24-8.4 27.2 0 4 10.8 2.8 121.6-1.6 130-2.4 4-7.6 7.6-12 7.6s-9.6-3.6-12-7.6zM152 808c-10.8-10.8-9.2-13.2 41.2-63.2 33.2-33.2 43.6-41.2 51.2-40 6.4 0.8 10 4.4 10.8 10.8 1.2 7.6-6.8 18-40 51.2-50 50.4-52.4 52-63.2 41.2zM813.2 771.2c-37.2-36.8-45.2-46.8-44.4-55.2 0.8-7.2 4-10.4 11.2-11.2 8.4-0.8 18.4 7.2 55.2 44.8 39.6 40 44.8 46.8 41.2 53.6-9.6 17.6-16 14.4-63.2-32zM468.8 720c-109.2-19.6-194.4-97.6-223.2-204-9.6-34.8-9.6-101.2 0-136 26.4-97.2 101.2-172 198.4-198.4 34.8-9.6 101.2-9.6 136 0 97.2 26.4 172.4 101.6 198.4 198.4 4.4 16.8 6.8 40.8 6.8 68s-2.4 51.2-6.8 68c-26 96.8-102.8 173.2-198 198-31.6 8-83.6 10.8-111.6 6zM564.8 687.6c67.6-14 136-68 166.4-131.6 19.2-40.4 24.8-65.2 24.8-108s-5.6-67.6-24.8-108c-22.8-47.6-63.6-88.4-111.2-111.2-40.4-19.2-65.2-24.8-108-24.8s-67.6 5.6-108 24.8c-47.6 22.8-88.4 63.6-111.2 111.2-19.2 40.4-24.8 65.2-24.8 108s5.6 67.6 24.8 108c29.6 62 93.6 114 160 130.4 26.8 6.4 84 6.8 112 1.2zM6.8 459.6c-9.2-5.2-8.8-18.4 0.8-23.6 8.4-4.4 119.2-5.6 130-1.6 8.4 3.2 8.4 24 0 27.2-10.4 4-123.2 2.4-130.8-2zM885.2 461.2c-7.6-2.8-6.4-24 1.2-26.8 10.8-4 121.6-2.8 130 1.6 4 2.4 7.6 7.6 7.6 12s-3.6 9.6-7.6 12c-8 4-121.6 5.2-131.2 1.2zM188.8 146.4c-39.6-40-44.8-46.8-41.2-53.6 9.6-17.6 16-14.4 63.2 32 37.2 36.8 45.2 46.8 44.4 55.2-0.8 7.2-4 10.4-11.2 11.2-8.4 0.8-18.4-7.2-55.2-44.8zM770.8 189.2c-9.2-8.8 0-22.4 42.8-64.8 40-39.2 46.8-44.4 53.6-40.8 17.6 9.6 14.4 16-32 62.8-42 42.8-55.6 52-64.4 42.8zM498.4 73.6c-4-10.8-2.8-121.6 1.6-130 2.4-4 7.6-7.6 12-7.6s9.6 3.6 12 7.6c4.4 8.4 5.6 119.2 1.6 130-1.6 3.6-7.2 6.4-13.6 6.4s-12-2.8-13.6-6.4z" />
<glyph unicode="&#xe90f;" glyph-name="monitor" d="M38 898.4c-14.8-6.4-28-20.8-33.6-35.6-3.2-7.6-4.4-115.2-4.4-333.6v-322l8.8-15.6c17.2-30.4 9.6-29.2 195.2-31.6l166-2-0.8-33.2c-0.8-37.6-6.4-50.8-30.4-70.4-15.2-12.4-16.4-12.4-69.6-14.4-47.2-1.6-54.4-2.8-59.6-9.6-7.6-10.8-7.2-20.8 2.4-30.4 8-8 13.2-8 300-8s292 0 300 8c9.6 9.6 10 19.6 2.4 30.4-5.2 6.8-12.4 8-59.6 9.6-53.2 2-54.4 2-69.6 14.4-24 19.6-29.6 32.8-30.4 70.4l-0.8 33.2 166 2c185.6 2.4 178 1.2 195.2 31.6l8.8 15.6-0.8 328c-1.2 324.4-1.2 328.4-9.6 339.2-4.4 6-13.2 14.8-19.2 19.2-10.8 8.4-13.2 8.4-477.6 9.2-382.8 0.8-468.8 0-478.8-4.4zM975.2 623.2l0.8-231.2h-928v229.2c0 126.4 1.2 230.8 2.8 232 1.2 1.6 209.6 2.4 462.8 2l460.4-1.2 1.2-230.8zM975.2 277.2l-1.2-67.2h-924l-1.2 67.2-0.8 66.8h928l-0.8-66.8zM608.4 118c1.6-33.6 3.6-43.6 12.4-59.2l10.8-18.8h-239.2l10.8 18.8c8.8 15.6 10.8 25.2 12 55.2 0.8 19.6 2 38.4 2.8 41.2 1.6 4 22.4 4.8 94.8 4l93.2-1.2 2.4-40zM437.6 659.6c-48.8-48.8-89.6-92-90.8-96-3.6-12.8 6.4-25.6 20.8-26.8 13.2-1.2 18 2.8 103.2 88 61.6 62 89.2 92.4 89.2 98.4 0 11.2-13.6 24.8-24.8 24.8-6 0-36-26.8-97.6-88.4zM587.6 613.2c-21.6-21.2-40.4-42-42-46-3.6-11.6 8.8-27.2 21.6-27.2 15.2 0 88.8 73.2 88.8 88.4 0 11.6-11.2 23.6-22 23.6-4 0-24.8-17.6-46.4-38.8z" />
<glyph unicode="&#xe910;" glyph-name="smartphone" d="M265.6 952.4c-20.4-9.2-36-28.8-41.2-52.4-5.6-24.4-6-870.8-0.4-900 4.8-26.4 20-46.4 41.6-56.4 15.6-6.8 30.4-7.6 246.4-7.6s230.8 0.8 246.4 7.6c20.4 9.2 36 28.8 41.2 52.4 5.6 24.8 5.6 879.2 0 904-5.2 23.6-20.8 43.2-41.2 52.4-15.6 6.8-30.4 7.6-246.4 7.6s-230.8-0.8-246.4-7.6zM750.4 916.8c12.8-10 17.6-22 17.6-42.4v-18.4h-512v18.4c0 20.4 4.8 32.4 17.6 42.4 7.6 6.4 26.4 7.2 238.4 7.2s230.8-0.8 238.4-7.2zM768 500v-324h-512v648h512v-324zM768 71.6c0-70.4-1.6-79.6-17.6-92.4-7.6-6.4-26.4-7.2-238.4-7.2s-230.8 0.8-238.4 7.2c-16 12.8-17.6 22-17.6 92.4v68.4h512v-68.4zM432.8 903.2c-2.4-2.4-4.8-8-4.8-11.6 0-13.2 10-16 52-14.8 34 1.2 42 2.4 45.6 8.4 3.2 4.8 3.2 8.8 0 14-3.6 5.6-11.6 6.8-46 8-29.2 0.8-43.2-0.4-46.8-4zM486 118.4c-14.8-6.8-32-24.8-37.6-39.6-16-42.4 18-90.8 63.6-90.8 46.8 0 80.8 50.4 62.4 93.2-14.8 34.8-55.6 51.6-88.4 37.2zM534.8 79.2c10.4-9.6 12.4-32.8 3.6-44-12.4-16.4-40.4-16.4-52.8 0-8.4 10.8-6.8 33.2 3.2 43.6 11.2 12 33.2 12.4 46 0.4zM48.8 870.4c-31.6-34-46.8-77.6-46.4-130.4 0.4-41.6 8.8-71.2 29.2-102.8 19.6-30.4 34.4-42.4 45.2-36.8 11.2 6 13.2 14.4 5.6 24.8-3.6 4.8-12.4 17.2-20 28-17.6 24-26.4 54.4-26.4 89.6 0 42 11.2 73.2 37.6 104.8 16.4 19.6 17.2 24.4 7.2 33.6-10.8 10-14 8.8-32-10.8zM942.8 880.8c-9.6-10.4-8.8-13.6 7.6-33.2 26.4-31.6 37.6-62.8 37.6-104.8 0-35.2-8.8-65.6-26.4-89.6-7.6-10.8-16.4-23.2-20-28-7.6-10.4-5.6-18.8 5.6-24.8 10.8-5.6 25.6 6.4 45.2 36.8 20.4 31.6 28.8 61.2 29.2 102.8 0.4 52.8-14.8 96.4-46.4 130.4-18 19.6-22.8 21.2-32.4 10.4zM118.4 833.6c-42.4-55.2-40-135.2 5.2-184.4 13.2-14.8 20.8-16.4 30-6.8 8.4 8 8 10-3.6 26-19.6 26.8-27.2 48-27.2 75.6 0 28.8 6.4 47.2 25.6 73.6 10.4 14.8 11.6 18.8 8 26-8 14.4-22.4 10.8-38-10zM870.4 841.6c-8.4-8.4-8.4-9.6 6-29.6 18.8-26 24.8-43.2 24.4-72 0-30-4-42.4-23.2-70.4-15.2-22.4-14.8-32 1.6-36.4 8-2 12.4 0 21.6 11.2 6.4 7.6 16.4 23.6 22.4 35.6 9.6 19.2 10.8 26.8 10.8 60 0 32.8-1.6 40.8-10.4 60-12 24.4-32 48-41.2 48-3.2 0-8.8-2.8-12-6.4z" />
<glyph unicode="&#xe911;" glyph-name="photo-camera" d="M292.4 859.2c-2-5.2-17.6-44-34.4-86-30-75.2-31.2-77.2-42.4-77.2h-11.6v84h-100v-84h-14.8c-24.4 0-44.8-7.6-61.2-22.4-29.2-26.8-28.4-15.2-27.2-318.4l1.2-270.4 12-17.6c6.8-9.2 20.4-21.6 30-27.2l18-10h900l18 10c9.6 5.6 23.2 18 30 27.2l12 17.6 1.2 270.4c1.2 303.2 2 291.6-27.2 318.4-8.4 7.6-22.4 15.6-30.8 18s-49.6 4.4-91.6 4.4h-76.8l-34 85.2-34 84.8-432.8 2-3.6-8.8zM740 746.8l34-84.8 190.8-4 11.6-13.2 11.6-12.8v-266.4c0-294 0.8-282.4-25.6-295.2-12.4-5.6-54.4-6.4-450.4-6.4s-438 0.8-450.4 6.4c-26.4 12.8-25.6 1.2-25.6 295.2v266.4l11.6 12.8 11.6 13.2 190.8 4 34 84.8 34 85.2h388l34-85.2zM457.6 708c-118.8-21.6-219.6-119.6-246.4-240-6.8-31.6-6-100.8 2-133.2 27.2-110.4 115.2-199.2 224.4-226.8 42.8-10.8 106-10.8 148.8 0 109.2 27.6 197.2 116.4 224.4 226.8 8 32.4 8.8 101.6 2 133.2-24.4 108.4-104.4 196-210.8 230.4-36 11.6-107.2 16.4-144.4 9.6zM578 669.6c86.8-20.4 164.4-93.2 194-181.6 12-36 14.8-100 6.4-140-20-94.8-94.4-174.8-190.4-204.8-42.8-13.2-109.2-13.2-152 0-75.2 23.6-133.6 73.2-168.4 142.8-21.6 43.6-28.8 81.2-26.4 134 3.6 73.2 27.2 125.6 80.4 178 70 69.2 160 94.4 256.4 71.6zM486 607.6c-100.4-12-178-101.2-178-204.8 0-85.2 58.8-163.6 144.4-193.2 29.6-10.4 89.6-10.4 119.2 0 85.6 29.6 144.4 108 144.4 193.2 0 34.4-6.8 62.4-22 93.2-39.2 78-120.8 122-208 111.6zM544.4 572c85.6-16 148-102.8 135.2-188-4.4-30-8.8-44-21.2-65.2-15.2-26-46.4-53.6-77.6-68-24.8-12-30-12.8-68.8-12.8s-44 0.8-68.8 12.8c-42.8 20.4-80 60-92 98.4-38.8 127.2 64.8 246.8 193.2 222.8zM865.6 623.6c-16.8-4.8-40.4-31.6-44-49.6-10.8-58.8 48.4-102.4 100-72.8 47.2 26.8 42.8 96.4-7.2 119.2-18 8-29.6 8.8-48.8 3.2zM910 582c6.8-6.4 10-14 10-22.8-0.4-16.4-7.2-26-23.2-31.6s-34.4 3.6-40 20.4c-11.6 33.2 28.4 58.8 53.2 34z" />
<glyph unicode="&#xe912;" glyph-name="mail" d="M50 804.4c-8.8-4-20.8-12.4-26.8-18.8-24-25.6-23.2-13.6-23.2-338.4 0-280.8 0.4-298 7.6-313.2 4-8.8 12.4-20.8 18.8-26.8 26.4-24.4-0.8-23.2 486.4-23.2 424.8 0 446 0.4 461.2 7.6 8.8 4 20.8 12.4 26.8 18.8 24 25.6 23.2 14 23.2 337.6s0.8 312-23.2 337.6c-6 6.4-18 14.8-26.8 18.8-15.2 7.2-36.4 7.6-462 7.6s-446.8-0.4-462-7.6zM957.6 776.4c6.4-2.4-8-16.4-84-82.8-50.4-44.4-144.8-126.4-209.6-183.2s-122-104.8-127.2-106.8c-12-4.8-37.6-4.8-49.6 0-5.2 2-62.4 50-127.2 106.8s-159.2 138.8-209.6 183.2c-76 66.4-90.4 80.4-84 82.8 4 1.6 204.8 3.2 445.6 3.2s441.6-1.6 445.6-3.2zM213.6 594l159.6-139.2-11.6-10c-6.4-5.6-49.6-46-96.4-90-63.2-59.2-85.2-82.4-85.2-89.2 0-12 11.2-18.4 22-12.4 4.4 2 50 43.6 100.8 91.6 62 58.4 94.8 86.8 98 84.8 2.8-1.6 17.2-13.6 32-26.4 37.2-31.6 48-36.8 79.2-36.8 31.6 0 42.8 5.6 82 40 16.4 14 30.8 25.6 32.4 25.6 1.2 0 44-39.2 94.8-87.2 51.2-48 96.4-89.2 100.8-91.6 10.4-6 22 0.4 22 12.4 0 7.2-23.2 31.2-95.6 98.8l-96 89.6 10.8 10.8c6 6 81.2 72 166.8 146.8 100 86.8 157.2 134 158.8 131.2s3.2-135.2 3.2-294.8c0-273.6-0.4-290.8-7.2-303.6-4-7.6-13.6-17.2-21.2-21.2-12.8-6.8-34.8-7.2-451.6-7.2s-438.8 0.4-451.6 7.2c-7.6 4-17.2 13.6-21.2 21.2-6.8 12.8-7.2 30.4-7.2 302.4 0 158.8 1.2 291.6 2.4 295.2 2.4 5.6 3.6 5.6 11.2-1.2 4.4-4.4 80.4-70.4 168-146.8z" />
<glyph unicode="&#xe913;" glyph-name="light-bulb" d="M458.8 956c-106.4-19.2-195.2-80.4-249.2-172-52.8-89.6-60.8-209.6-19.6-305.2 20.8-48.4 36.8-72.8 77.2-115.6 40.8-42.8 53.6-65.2 62.4-108.4 3.2-14.4 6.8-28 8.4-30.4 3.6-6 344.4-6 348 0 1.6 2.4 5.2 16 8.4 30.4 8.8 42.4 21.2 64 62 108 40.8 43.6 57.2 68 77.6 116 17.6 40.8 26 83.6 26 131.2 0 157.6-100.8 291.2-254 336-39.6 11.6-111.6 16.4-147.2 10zM594 918c84.4-22.8 160.4-84.8 200-164 24-48 34-88.4 34-140 0-49.2-5.2-78.4-20.4-118.4-16-41.6-37.2-73.2-77.6-116-36-38-51.2-62.8-62-101.6l-6.8-24h-298.4l-6.8 24c-10.8 38.8-26 63.6-62 101.6-40.4 42.8-61.6 74.4-77.6 116-15.2 40-20.4 69.2-20.4 118.4 0 147.6 103.6 274.8 250.8 307.6 34 7.6 112.8 6 147.2-3.6zM336.4 148.8c-2.8-5.6-2.4-10 2-16 6-8.8 6.4-8.8 173.2-8.8 180.4 0 178.8-0.4 175.6 20.8l-1.2 9.2-172.8 1.2c-164.8 0.8-173.2 0.4-176.8-6.4zM336.4 52.8c-2.4-4.4-2.4-9.6 0-14 3.6-6.4 17.2-6.8 175.6-6.8s172 0.4 175.6 6.8c2.4 4.4 2.4 9.6 0 14-3.6 6.8-15.2 7.2-175.6 7.2s-172-0.4-175.6-7.2zM435.2-36.4c-8.4-4.8-9.2-16-2.4-22.8s151.6-6.8 158.4 0c7.2 7.2 5.6 18.4-2.8 23.2-10.4 5.2-144 5.2-153.2-0.4z" />
</font>
</defs>
</svg>
